<?xml version="1.0" encoding="utf-8"?>
<!-- Generator: Adobe Illustrator 16.0.0, SVG Export Plug-In . SVG Version: 6.00 Build 0)  -->
<!DOCTYPE svg PUBLIC "-//W3C//DTD SVG 1.1//EN" "http://www.w3.org/Graphics/SVG/1.1/DTD/svg11.dtd">
<svg version="1.1" id="Layer_1" xmlns="http://www.w3.org/2000/svg" xmlns:xlink="http://www.w3.org/1999/xlink" x="0px" y="0px"
	 width="174px" height="72px" viewBox="0 0 174 72" enable-background="new 0 0 174 72" xml:space="preserve">
<g>
	<path fill="#231F20" d="M80.917,18.207h15.777c8.317,0,11.233,6.089,11.233,10.462c0,7.417-4.974,10.89-12.005,10.89h-5.575v9.261
		h-9.431V18.207z M90.348,32.27h3.644c2.445,0,5.019-0.171,5.019-3.258c0-2.787-2.145-2.958-4.459-2.958h-4.203V32.27z"/>
	<path fill="#231F20" d="M125.344,17.479c9.304,0,15.521,6.688,15.521,16.035c0,9.346-6.217,16.036-15.521,16.036
		s-15.52-6.69-15.52-16.036C109.824,24.167,116.04,17.479,125.344,17.479 M125.344,41.917c2.401,0,6.088-1.587,6.088-8.403
		c0-6.817-3.687-8.403-6.088-8.403c-2.399,0-6.088,1.586-6.088,8.403C119.256,40.33,122.944,41.917,125.344,41.917"/>
	<path fill="#231F20" d="M144.516,18.208h15.478c10.205,0,13.806,7.546,13.806,15.263c0,9.389-4.974,15.349-15.649,15.349h-13.634
		V18.208z M153.947,40.974h3.688c5.875,0,6.73-4.759,6.73-7.631c0-1.93-0.599-7.289-7.415-7.289h-3.003V40.974z"/>
	<path fill="#F8AF41" d="M0.201,36c0-19.407,15.731-35.139,35.14-35.139C54.747,0.86,70.479,16.592,70.479,36
		c0,19.407-15.732,35.14-35.139,35.14C15.933,71.14,0.201,55.406,0.201,36"/>
	<path fill="#231F20" d="M35.238,48.685h-0.196c-0.507,0-0.919,0.412-0.919,0.92v16.293c0,0.507,0.412,0.919,0.919,0.919h0.196
		c0.508,0,0.92-0.412,0.92-0.919V49.604C36.158,49.097,35.746,48.685,35.238,48.685"/>
	<path fill="#231F20" d="M31.952,48.871l-0.17-0.097c-0.439-0.257-1.002-0.105-1.255,0.334l-9.392,16.268
		c-0.255,0.439-0.104,0.999,0.335,1.254l0.172,0.1c0.44,0.254,1,0.104,1.256-0.337l9.392-16.268
		C32.543,49.688,32.393,49.124,31.952,48.871"/>
	<path fill="#231F20" d="M48.97,66.63c0.438-0.255,0.589-0.814,0.334-1.254l-9.391-16.27c-0.252-0.438-0.815-0.589-1.257-0.334
		l-0.17,0.099c-0.438,0.253-0.589,0.816-0.336,1.256l9.393,16.266c0.255,0.439,0.814,0.589,1.254,0.337L48.97,66.63z"/>
	<path fill="#231F20" d="M31.57,48.52h7.14c0.289,0,0.523-0.233,0.523-0.521v-1.264c0-0.288-0.234-0.521-0.523-0.521h-0.061v-1.799
		c0-0.604-0.49-1.096-1.098-1.096h-1.541v-2.716h1.306c0.241,0,0.437-0.194,0.438-0.436l3.452,1.363l-0.013,0.026
		c-0.058,0.146,0.013,0.313,0.16,0.372l2.105,0.83c0.146,0.058,0.313-0.014,0.37-0.162l0.254-0.64
		c0.059-0.147-0.015-0.313-0.162-0.371l-2.104-0.832c-0.147-0.056-0.311,0.016-0.371,0.162l-0.012,0.028l-3.679-1.453v-0.391
		c0-0.243-0.196-0.439-0.438-0.439h-4.363c-0.241,0-0.438,0.196-0.438,0.439v1.063c0,0.243,0.196,0.439,0.438,0.439h1.316v2.716
		h-1.541c-0.605,0-1.097,0.491-1.097,1.096v1.799H31.57c-0.289,0-0.522,0.232-0.522,0.521v1.264
		C31.048,48.286,31.281,48.52,31.57,48.52"/>
	<path fill="#F8AF41" d="M33.469,44.414h0.619c0.327,0,0.441,0.239,0.441,0.41c0,0.29-0.195,0.426-0.472,0.426h-0.219v0.365h-0.37
		V44.414z M33.839,44.965h0.144c0.096,0,0.197-0.006,0.197-0.127c0-0.11-0.085-0.116-0.175-0.116h-0.166V44.965z"/>
	<path fill="#F8AF41" d="M35.278,44.386c0.365,0,0.609,0.262,0.609,0.629c0,0.366-0.244,0.628-0.609,0.628s-0.609-0.262-0.609-0.628
		C34.669,44.647,34.913,44.386,35.278,44.386 M35.278,45.344c0.095,0,0.239-0.063,0.239-0.329c0-0.268-0.145-0.33-0.239-0.33
		c-0.094,0-0.239,0.063-0.239,0.33C35.039,45.281,35.185,45.344,35.278,45.344"/>
	<path fill="#F8AF41" d="M36.096,44.414h0.606c0.4,0,0.543,0.296,0.543,0.597c0,0.37-0.196,0.604-0.615,0.604h-0.534V44.414z
		 M36.465,45.307h0.145c0.231,0,0.265-0.187,0.265-0.3c0-0.075-0.023-0.285-0.291-0.285h-0.118V45.307z"/>
	<path fill="#231F20" d="M50.362,9c1.558,2.434,2.441,6.33-1.031,9.305c-0.733,0.63-2,1.135-3.108,1.44
		c-1.128-1.372-3.401-2.504-5.62-3.155c-2.166-0.634-4.114,0.447-5.883,1.682c-0.74,0.515-1.62,1.046-2.247,1.411
		c-0.26,0.055-0.526,0.126-0.795,0.216c-0.729,0.244-0.947,0.008-1.02-0.364c-0.022-0.504-0.102-0.991-0.268-1.395
		c-0.269-1.03-1.011-1.924-2.321-2.423c-0.68-0.259-1.623-0.365-2.492,0.183c-0.861,0.542-1.34,1.016-2.136,1.895
		c-0.745,0.827-1.098,0.832-1.456,0.798c-0.368-0.033-0.824-0.561-0.824-0.561s-0.415,0.863,0.632,1.84
		c0.553,0.518,1.457,0.201,1.457,0.201s-0.061,0.608-0.125,0.757c-0.063,0.148-0.29,0.395-0.433,0.611
		c-0.132,0.198-0.179,0.23-0.129,0.349c0.073,0.18,0.193,0.212,0.193,0.212s-0.124,0.296-0.135,0.411
		c-0.014,0.113-0.15,0.613,0.378,0.897c0.645,0.35,1.456,0.004,1.59-0.042c0,0-0.119,0.408-0.415,0.622
		c-0.337,0.243-0.552,0.229-0.552,0.229s1.762,0.765,3.387-0.145c0.553-0.309,0.861-0.636,0.861-0.636s0,0.166,0.026,0.435
		c-0.003,0.122,0.022,0.312,0.075,0.547c0.07,0.41,0.191,0.903,0.397,1.4c0.35,1.048,0.823,2.207,1.182,2.742
		c0.295,0.343,0.651,0.582,1,0.826c0.498,0.467,0.682,0.678,1.079,1.374c0,0,0.806,1.828,1.171,2.853
		c0.769,2.146,0.73,2.949,0.662,3.452c-0.061,0.448-0.131,0.755-0.435,0.786c-0.305,0.031-1.042,0.02-1.212,0.187
		c-0.332,0.335-0.393,1.118-0.072,1.178c0.124,0.02,0.517-0.216,0.611-0.277c0.133-0.086,0.242-0.165,0.343-0.224
		c-0.049,0.089-0.1,0.179-0.148,0.269c0.127-0.025,0.313-0.078,0.705-0.078c0.804,0,1.723-0.059,2.688-0.004
		c2.322,0.132,2.056-0.235,2.175-0.373c0.12-0.14-0.56-0.927-0.56-0.927c-0.143-0.901,0.503-2.812,1.08-3.588
		c0.678-0.912,1.057-2.659,0.851-3.585c-0.063-0.281,0.212-0.422,0.412-0.541c1.517-0.899,4.295-3.113,5.793-5.082
		c0.863-1.13,1.238-1.879,1.266-2.986c0.182-0.234,0.571-0.555,1.077-0.826c1.563-0.839,2.937-1.792,3.966-3.584
		c1.347-2.345,1.882-6.858-2.219-10.688c0,0-3.629-3.322-9.064-2.87l0.551,0.872C41.271,4.627,47.498,4.524,50.362,9 M24.271,20.918
		c-0.262-0.018-0.459-0.245-0.442-0.506c0.016-0.263,0.241-0.46,0.505-0.444c0.262,0.018,0.462,0.244,0.442,0.506
		C24.76,20.735,24.534,20.935,24.271,20.918 M36.786,29.662c-0.354,1.295-0.497,2.09-0.586,3.273
		c-0.089,1.181-0.063,2.475-0.021,3.254c0.039,0.714,0.387,1.019-0.255,1.092c-0.284,0.033-0.836,0.181-1.395,0.317
		c0.154-0.352,0.448-0.852,0.147-1.937c-0.305-1.095-0.663-3.91-0.663-4.61c0-0.612,0.691-1.635,0.861-1.876
		c0.004-0.001,0.008-0.002,0.008-0.002s0,0-0.004-0.002c0.021-0.031,0.033-0.049,0.033-0.049s-0.029,0.011-0.079,0.025
		c-0.271-0.139-1.482-0.826,0.153-1.286c1.919-0.541,3.549-2.201,4.476-3.327C38.988,25.284,37.413,27.381,36.786,29.662
		 M40.236,23.505c0.031-0.042,0.047-0.069,0.047-0.069l0.003,0.015C40.27,23.47,40.253,23.488,40.236,23.505"/>
	<path fill-rule="evenodd" clip-rule="evenodd" fill="#231F20" d="M41.572,4.159c3.021,0,5.471,2.451,5.471,5.471
		c0,3.021-2.45,5.471-5.471,5.471c-3.021,0-5.471-2.449-5.471-5.471C36.102,6.61,38.551,4.159,41.572,4.159"/>
	<path fill-rule="evenodd" clip-rule="evenodd" fill="#F8AF41" d="M41.572,4.683c2.731,0,4.946,2.217,4.946,4.947
		c0,2.732-2.215,4.947-4.946,4.947s-4.946-2.215-4.946-4.947C36.626,6.9,38.841,4.683,41.572,4.683"/>
	<path fill-rule="evenodd" clip-rule="evenodd" fill="#231F20" d="M41.572,3.705c3.272,0,5.926,2.653,5.926,5.926
		c0,3.273-2.653,5.927-5.926,5.927s-5.927-2.654-5.927-5.927C35.646,6.358,38.3,3.705,41.572,3.705 M41.572,4.29
		c2.949,0,5.341,2.392,5.341,5.341c0,2.949-2.392,5.34-5.341,5.34c-2.95,0-5.341-2.391-5.341-5.34
		C36.231,6.682,38.622,4.29,41.572,4.29"/>
	<path fill-rule="evenodd" clip-rule="evenodd" fill="#231F20" d="M41.572,5.187c2.454,0,4.443,1.989,4.443,4.443
		s-1.989,4.444-4.443,4.444s-4.444-1.99-4.444-4.444S39.118,5.187,41.572,5.187 M41.572,6.877c1.521,0,2.753,1.234,2.753,2.753
		c0,1.521-1.232,2.754-2.753,2.754c-1.52,0-2.753-1.233-2.753-2.754C38.819,8.111,40.053,6.877,41.572,6.877"/>
	<path fill-rule="evenodd" clip-rule="evenodd" fill="#231F20" d="M41.572,7.469c1.193,0,2.161,0.967,2.161,2.161
		c0,1.194-0.968,2.161-2.161,2.161c-1.194,0-2.162-0.967-2.162-2.161C39.41,8.436,40.378,7.469,41.572,7.469"/>
	<path fill-rule="evenodd" clip-rule="evenodd" fill="#F8AF41" d="M40.288,7.684c0.366,0,0.661,0.296,0.661,0.662
		c0,0.367-0.295,0.663-0.661,0.663s-0.663-0.296-0.663-0.663C39.625,7.979,39.922,7.684,40.288,7.684"/>
	<path fill-rule="evenodd" clip-rule="evenodd" fill="#231F20" d="M39.956,7.684c0.184,0,0.332,0.149,0.332,0.332
		s-0.148,0.33-0.332,0.33c-0.183,0-0.331-0.147-0.331-0.33S39.773,7.684,39.956,7.684"/>
	<path fill="#231F20" d="M48.953,66.659l-0.105,0.063c-0.271,0.157-0.364,0.503-0.208,0.777l0.48,0.834
		c0.39-0.165,0.774-0.341,1.156-0.52l-0.546-0.944C49.573,66.595,49.225,66.504,48.953,66.659"/>
	<path fill="#231F20" d="M21.46,66.749c-0.299-0.174-0.662-0.109-0.81,0.147l-0.469,0.813c0.379,0.181,0.764,0.355,1.15,0.522
		l0.408-0.707C21.888,67.271,21.763,66.924,21.46,66.749"/>
	<path fill="#231F20" d="M35.141,66.889c-0.347,0-0.63,0.284-0.63,0.632v3.607c0.276,0.008,0.552,0.012,0.83,0.012
		c0.144,0,0.287-0.004,0.43-0.006v-3.613C35.771,67.173,35.489,66.889,35.141,66.889"/>
</g>
</svg>
