<?xml version="1.0" encoding="utf-8"?>
<!-- Generator: Adobe Illustrator 16.0.0, SVG Export Plug-In . SVG Version: 6.00 Build 0)  -->
<!DOCTYPE svg PUBLIC "-//W3C//DTD SVG 1.1//EN" "http://www.w3.org/Graphics/SVG/1.1/DTD/svg11.dtd">
<svg version="1.1" id="Layer_1" xmlns="http://www.w3.org/2000/svg" xmlns:xlink="http://www.w3.org/1999/xlink" x="0px" y="0px"
	 width="512px" height="512px" viewBox="0 0 512 512" enable-background="new 0 0 512 512" xml:space="preserve">
<g>
	<path fill="#FFFFFF" d="M255.797,2.372c43.385,0,87.045-2.831,130.158,0.7c60.759,5.022,117.653,63.185,122.521,124.299
		c3.621,45.988,2.859,92.342,3.012,138.513c0.152,37.922,1.643,76.211-2.586,113.768c-8.548,75.389-71.56,130.479-147.073,131.27
		c-70.495,0.67-140.929,0.67-211.378,0C68.014,510.039,1.749,444.45,0.593,361.969c-0.989-72.132-0.928-144.234-0.061-216.397
		C1.505,66.622,69.292,0.942,150.116-0.336c35.202-0.487,70.434-0.091,105.681-0.091V2.372z M254.702,465.086v-0.062
		c36.298,0,72.624,0.64,108.921-0.151c54.34-1.096,100.616-45.258,101.62-99.373c1.398-73.168,1.551-146.396-0.152-219.532
		c-1.309-56.732-47.401-99.89-103.992-100.316c-70.419-0.487-140.823-0.579-211.241,0.061
		C92.142,46.291,46.55,92.675,46.367,150.076c-0.213,68.785-0.213,137.569,0,206.354c0.152,63.824,45.135,108.352,109.317,108.625
		C188.68,465.238,221.676,465.086,254.702,465.086"/>
	<path fill="#FFFFFF" d="M258.322,116.354c77.522,1.948,138.616,65.498,136.669,142.227c-1.917,76.271-65.9,137.69-141.476,135.773
		c-77.66-1.918-138.099-64.92-136.547-142.257C118.52,175.917,182.488,114.527,258.322,116.354 M255.113,349.034
		c49.729,0.64,93.177-41.271,94.607-91.246c1.46-51.01-41.622-95.538-93.025-96.207c-49.775-0.578-93.496,41.605-94.424,91.246
		C161.267,304.537,203.588,348.395,255.113,349.034"/>
	<path fill="#FFFFFF" d="M391.036,97.697c14.117,0.7,22.028,6.726,22.089,20.026c0.183,13.087-6.938,20.271-20.02,20.392
		c-12.293,0.122-19.168-6.696-19.959-18.9C372.294,105.823,380.113,99.736,391.036,97.697"/>
</g>
</svg>
