<?xml version="1.0" encoding="utf-8"?>
<!-- Generator: Adobe Illustrator 16.0.0, SVG Export Plug-In . SVG Version: 6.00 Build 0)  -->
<!DOCTYPE svg PUBLIC "-//W3C//DTD SVG 1.1//EN" "http://www.w3.org/Graphics/SVG/1.1/DTD/svg11.dtd">
<svg version="1.1" id="Layer_1" xmlns="http://www.w3.org/2000/svg" xmlns:xlink="http://www.w3.org/1999/xlink" x="0px" y="0px"
	 width="512px" height="512px" viewBox="0 0 512 512" enable-background="new 0 0 512 512" xml:space="preserve">
<g>
	<path fill="#FFFFFF" d="M0.262,402.063V122.201c3.055,1.815,6.686,3.083,9.136,5.533c41.24,41.355,82.365,82.855,123.461,124.297
		c2.075,2.075,3.833,4.496,6.138,7.205c-3.977,4.265-7.55,8.098-11.153,11.902c-27.09,28.646-54.209,57.292-81.212,86.024
		c-7.925,8.444-8.127,18.732-0.979,25.159c6.974,6.254,15.937,5.389,23.862-2.997c14.294-15.188,28.272-30.663,42.422-45.967
		c15.62-16.888,31.297-33.776,48.157-51.96c26.427,29.049,53.488,54.554,95.074,54.899c42.22,0.347,69.598-25.13,97.957-57.032
		c3.486,5.389,5.418,9.711,8.501,12.969c27.437,28.876,54.987,57.58,82.653,86.197c9.078,9.424,17.061,10.029,24.438,2.623
		c7.177-7.176,6.743-16.168-1.585-25.045c-14.525-15.475-29.223-30.778-43.805-46.254c-16.053-16.975-32.047-34.064-48.618-51.701
		c44.323-44.987,87.927-89.282,131.588-133.461c1.412-1.383,3.948-1.643,5.966-2.392v279.862
		c-8.877,23.228-26.023,31.153-50.376,31.038c-137.093-0.635-274.213-0.605-411.306-0.029
		C26.372,433.188,8.936,425.58,0.262,402.063"/>
	<path fill="#FFFFFF" d="M16.256,86.494c8.876-9.193,20.087-8.646,30.952-8.646c91.76-0.086,183.491-0.058,275.222-0.058
		c48.157,0,96.285-0.26,144.441,0.259c9.713,0.115,19.396,3.17,31.875,5.389c-4.324,4.986-5.852,6.974-7.58,8.703
		c-61.5,62.854-122.971,125.738-184.558,188.535c-30.116,30.691-70.578,30.865-100.406,0.432
		C144.616,218.313,83.174,155.372,21.674,92.518C19.858,90.673,18.158,88.656,16.256,86.494"/>
</g>
</svg>
