<?xml version="1.0" encoding="utf-8"?>
<!-- Generator: Adobe Illustrator 16.0.0, SVG Export Plug-In . SVG Version: 6.00 Build 0)  -->
<!DOCTYPE svg PUBLIC "-//W3C//DTD SVG 1.1//EN" "http://www.w3.org/Graphics/SVG/1.1/DTD/svg11.dtd">
<svg version="1.1" id="Layer_1" xmlns="http://www.w3.org/2000/svg" xmlns:xlink="http://www.w3.org/1999/xlink" x="0px" y="0px"
	 width="512px" height="512px" viewBox="0 0 512 512" enable-background="new 0 0 512 512" xml:space="preserve">
<g>
	<path fill="#FFFFFF" d="M178.141-0.584c1.788,0.911,3.542,1.889,5.296,2.8c5.262,2.766,7.252,7.96,9.241,13.02
		c10.254,26.544,20.339,53.055,30.659,79.565c4.992,12.716,3.44,24.453-4.014,35.685c-3.035,4.554-5.599,9.31-8.533,13.862
		c-0.91,1.417-2.327,2.698-3.777,3.575c-22.193,13.054-30.761,32.582-28.298,57.812c1.854,19.124,8.432,36.73,16.459,53.932
		c9.444,20.271,20.71,39.53,33.729,57.676c10.76,15.043,22.699,29.007,38.181,39.328c19.462,13.053,39.767,15.11,60.813,3.406
		c2.26-1.282,5.093-1.889,7.689-2.091c4.891-0.405,9.849,0.067,14.672-0.371c15.381-1.248,26.41,5.329,35.617,17.269
		c15.887,20.574,32.549,40.542,48.873,60.745c1.552,1.923,3.104,3.777,4.554,5.734c5.868,7.757,5.666,16.83-0.675,24.318
		c-8.466,9.949-16.695,20.102-25.566,29.681c-2.799,3.036-7.15,4.823-11.13,6.577c-10.726,4.722-22.059,7.656-33.763,8.871
		c-0.641,0.067-1.281,0.404-1.889,0.606h-20.474c-1.281-0.27-2.631-0.472-3.946-0.81c-12.682-3.002-25.701-5.093-37.944-9.309
		c-26.106-8.972-49.177-23.678-70.695-40.778c-22.295-17.809-42.093-38.214-60.104-60.374c-15.649-19.428-29.782-39.9-42.431-61.386
		c-17.37-29.58-32.008-60.543-43.037-93.125c-6.881-20.338-12.379-40.98-15.616-62.094c-3.407-21.789-4.857-43.78-2.969-65.906
		c2.834-32.615,11.67-62.836,33.561-88.065c11.67-13.424,24.925-24.048,43.881-25.465c7.893-0.607,15.649-3.035,23.475-4.688
		H178.141z"/>
	<path fill="#FFFFFF" d="M439.369,256.395c-0.27,14.402-2.429,28.501-5.768,42.464c-1.113,4.587-3.744,7.859-8.466,8.904
		c-4.216,0.944-8.196-0.27-10.456-3.879c-1.45-2.293-2.294-5.632-1.99-8.33c1.181-9.85,3.475-19.597,4.352-29.445
		c2.158-23.88-2.024-46.883-11.266-69.009c-8.062-19.326-19.63-36.359-34.74-50.795c-13.391-12.851-28.434-23.206-45.77-30.086
		c-7.05-2.8-14.302-5.161-21.317-8.027c-4.924-1.99-7.353-7.117-6.172-11.975c1.281-5.362,5.565-8.87,11.231-7.757
		c6.645,1.281,13.222,3.17,19.529,5.666c32.379,12.648,58.924,33.189,78.891,61.589c17.978,25.532,28.568,53.932,30.93,85.266
		C438.762,246.107,439.032,251.302,439.369,256.395"/>
	<path fill="#FFFFFF" d="M396.635,256.9c-1.518,9.478-3.035,20.237-5.06,30.896c-1.281,6.813-6.408,9.95-12.951,8.702
		c-5.6-1.113-8.736-6.308-7.859-12.851c1.282-9.546,3.44-19.091,3.407-28.67c-0.102-29.479-10.827-54.91-31.604-75.957
		c-12.75-12.951-27.86-22.024-45.332-27.117c-4.114-1.181-8.195-2.766-9.949-7.083c-1.519-3.744-1.383-7.656,1.281-10.86
		c3.002-3.644,7.016-5.396,11.637-3.744c8.432,3.035,17.032,5.869,25.061,9.781c13.424,6.577,25.127,15.65,35.347,26.646
		c16.831,18.011,27.894,39.125,32.549,63.343C394.78,238.383,395.387,246.917,396.635,256.9"/>
	<path fill="#FFFFFF" d="M353.125,255.248c-1.046,6.981-1.855,13.997-3.171,20.911c-1.247,6.779-7.116,10.692-13.019,9.31
		c-5.835-1.35-9.444-7.15-7.859-13.627c3.272-13.222,2.8-26.207-2.091-38.889c-7.69-19.9-21.722-33.223-42.127-39.698
		c-8.702-2.732-12.041-9.681-7.858-16.797c2.293-3.946,7.251-5.7,12.58-4.183c20.237,5.801,36.394,17.37,48.198,34.808
		C347.56,221.587,352.484,237.607,353.125,255.248"/>
	<path fill="#FFFFFF" d="M309.615,254.708c-0.54,3.777-0.81,7.623-1.652,11.266c-1.35,5.902-6.274,9.072-12.21,8.229
		c-5.464-0.775-9.006-5.262-8.77-11.366c0.135-3.609,0.91-7.354,0.404-10.895c-1.248-8.804-6.88-14.2-14.941-17.235
		c-4.351-1.653-7.623-4.148-8.331-9.073c-1.214-8.196,6.139-13.896,14.537-11.366C296.697,219.697,308.435,235.246,309.615,254.708"
		/>
</g>
</svg>
